<?xml version="1.0" encoding="utf-8"?>
<!-- Generator: Adobe Illustrator 18.1.1, SVG Export Plug-In . SVG Version: 6.00 Build 0)  -->
<!DOCTYPE svg PUBLIC "-//W3C//DTD SVG 1.1//EN" "http://www.w3.org/Graphics/SVG/1.1/DTD/svg11.dtd">
<svg version="1.1" id="Ebene_1" xmlns="http://www.w3.org/2000/svg" xmlns:xlink="http://www.w3.org/1999/xlink" x="0px" y="0px"
	 viewBox="0 0 512 512" enable-background="new 0 0 512 512" xml:space="preserve">
<path d="M368.5,316.3c0,22.1,17.7,40,39.5,40.1c21.4,0.1,40.3-16.1,40.3-40c0.1-23.4-18.2-40-39.4-40.1
	C386.3,276.1,368.5,293.8,368.5,316.3z M384.9,314.8c0.5-12.5,11.6-22.6,24.3-22.1c13.4,0.6,23.3,11.4,22.6,24.9
	c-0.6,12.6-11.4,22.8-23.7,22.3C394.2,339.4,384.3,328.7,384.9,314.8z"/>
<g>
	<path d="M287.9,323.9c-0.7-5.5-1.6-11-2.4-16.2l-2.3,16.2C284.8,323.9,286.3,323.9,287.9,323.9z"/>
	<path d="M507,294.3c-0.1-4-2.1-6.2-6.1-6.5c-1.8-0.1-2.9-0.9-3.2-2.8c-1.1-7.4-2.3-14.8-3.6-22.1c-1.3-7.7-6-12.8-13.3-14.7
		c-11.3-2.9-22.7-5.3-34.2-7.3c-11.9-2.1-23.9-3.7-35.9-5.1c-9.3-1.1-18.7-1.7-28-2.3c-4.7-0.3-9.4-0.3-14-0.5
		c-0.9,0-1.9-0.5-2.5-1.1c-8.2-7.8-16.5-15.6-24.7-23.5c-2.9,3-5.8,5.7-7.9,7.7c-0.9,0.9-1.8,1.9-2.8,2.9c0,0-0.1,0.1-0.1,0.1
		c1,0.9,2,1.9,2.9,2.8c2.6,2.5,5.2,4.9,7.8,7.4c0.4,0.4,0.8,1.1,0.6,1.5c-0.1,0.4-0.9,0.5-1.5,0.7c-0.3,0.1-0.6,0-0.9,0
		c-9,0-18,0-26.9,0c0,22.7,2.5,54.3,7.5,92.2c10.9,0,21.8,0,32.7,0c0.9,0,1.7,0,2.6,0c2.6,0,2.9-0.4,2.6-2.9
		c-3-24.2,14.4-48.4,38.2-53.4c17.3-3.6,32.5,0.6,45.2,12.8c11.5,11,16.4,24.7,15,40.6c-0.2,2.5,0,2.8,2.6,2.8c10.5,0,21,0,31.4,0
		c1.9,0,3.2-0.6,4.3-2.2c3.7-5,7.5-9.9,11.2-14.9c0.6-0.9,1-2.1,1.1-3.1C507.1,300.6,507.1,297.5,507,294.3z"/>
	<path d="M337.3,204.4c-3.7-3.5-7.4-7-11-10.5c-2.6,2.9-5,4.2-7.5,4.2c-3.6,0-7.2-2.9-11-7.8c-5.9-7.6-13-13.8-22-13.8
		c-2.8,0-5.8,0.6-9,2c1.8,0,3.7,0,5.5,0c3.8,0,7,1.2,9.7,3.9c11.5,11,23,21.9,34.5,32.9c1-1.1,2.1-2.3,3.1-3.3
		C331.4,210.3,334.2,207.6,337.3,204.4z"/>
</g>
<g>
	<path d="M310.3,178.7c-2.7-2.6-5.3-5.4-8.4-7.6c-0.3-0.2-0.5-0.4-0.8-0.5c-1.5,0.9-3.2,1.8-4.9,2.4c5.6,2.5,10.9,7,16.1,13.8
		c4.1,5.3,6.1,5.5,6.4,5.5c0.6,0,1.8-0.7,3.3-2.4C318.1,186.1,314.2,182.4,310.3,178.7z"/>
	<path d="M262,164c-32.5,0.1-64.9,0-97.4,0c-1.6,0-3.3-0.1-4.9,0c-10,1-18.5,5-25,12.8c-11.9,14.1-23.8,28.2-35.6,42.3
		c-3.8,4.5-7.5,9-11.3,13.4c-0.4,0.5-1.3,0.9-1.9,0.9c-9.1,0.2-18.3,0-27.4,0.5c-9,0.5-17.9,1.5-26.8,2.8
		c-9.1,1.3-15.3,8.8-15.7,17.9c-0.3,8.4-0.6,16.8-0.9,25.2c-0.1,1.6-0.2,3.3-0.2,4.9c-0.1,1.9-1,3.2-2.9,3c-6.1-0.6-8,3.2-8.2,8.9
		c-0.2,5.9,1,10.9,5.1,15.3c2.9,3,5.2,6.6,7.6,10c1,1.3,2.1,1.9,3.7,1.9c7.6,0,15.2,0,22.8,0c2.2,0,2.5-0.2,2.3-2.4
		c-1.1-11.3,1.1-22,7.3-31.6c9.2-14.4,22.4-22.3,39.5-23.4c25.3-1.5,47.1,17.2,51,40.7c0.8,4.7,0.5,9.7,0.6,14.5
		c0,1.5,0.5,2.1,1.9,2.2c0.7,0,1.3,0,2,0c34.4,0,68.8,0,103.2,0c5.1-31.3,7.7-62.1,7.8-92.2c-7.3,0-14.5,0-21.8,0
		c-2.8,0-2.8,0-2.8-2.9c0-16,0-32,0-48c0-2.2,0.1-2.3,2.4-2.3c10,0,20,0,30,0c2.2-2.1,4.9-3.9,8.2-5.3c0.1,0,0.1,0,0.2-0.1
		C269.7,171.2,265.3,168.1,262,164z M218.2,229c0,2.6-0.1,2.6-2.7,2.6c-16.9,0-33.9,0-50.8,0c-17,0-34.1,0-51.1,0c-0.5,0-1,0-1.5,0
		c-1.1-0.1-1.3-0.8-0.9-1.7c0.2-0.4,0.5-0.7,0.8-1c13-15.5,26-30.9,39.1-46.3c2.3-2.7,5.4-4.1,9-4.1c18.5,0,37,0,55.5,0
		c2.5,0,2.6,0.1,2.6,2.5C218.2,197,218.2,213,218.2,229z"/>
</g>
<g>
	<path fill="#2FA3D8" d="M446,134.8c1.4-0.5,2.4-1.4,3.2-2.5c0.8-1.1,1.2-2.5,1.2-4c0-1.9-0.5-3.4-1.6-4.6c-1.1-1.2-2.5-2-4.2-2.3
		c-1.2-0.2-3.7-0.3-7.4-0.3h-5v14.5h5.7C441.9,135.6,444.6,135.3,446,134.8z"/>
	<path fill="#2FA3D8" d="M465.3,100.5H414c-10.1,0-18.3,8.2-18.3,18.3v215.9c0,10.1,8.2,18.3,18.3,18.3h51.3
		c10.1,0,18.3-8.2,18.3-18.3V118.8C483.6,108.7,475.4,100.5,465.3,100.5z M421.9,112.4h16.6c6.3,0,10.4,0.3,12.3,0.8
		c2.9,0.8,5.4,2.4,7.4,5c2,2.6,3,5.9,3,10c0,3.1-0.6,5.8-1.7,7.9c-1.1,2.1-2.6,3.8-4.3,5c-1.8,1.2-3.5,2-5.4,2.4
		c-2.5,0.5-6,0.7-10.7,0.7h-6.7v19.3h-10.3V112.4z M470.3,215.1c0,10.1-8.2,18.3-18.3,18.3h-27.9c-10.1,0-18.3-8.2-18.3-18.3v-24.8
		c0-10.1,8.2-18.3,18.3-18.3H452c10.1,0,18.3,8.2,18.3,18.3V215.1z"/>
</g>
<rect x="359.7" y="170" transform="matrix(0.961 -0.2767 0.2767 0.961 -34.8352 110.2163)" fill="#010202" width="26.9" height="17.1"/>
<path fill="#181B1A" d="M329.7,211.4c6-5.6,26.1-25.5,21-31.1c-1.1-1.3-2.6-1.8-4.2-1.8c-6.8,0-16.4,9.5-17.9,11.7
	c-3.4,5.1-6.7,7.3-9.9,7.3c-3.6,0-7.2-2.9-11-7.8c-5.9-7.6-13-13.8-22-13.8c-2.8,0-5.8,0.6-9,2c-13.6,5.8-13.4,18.6-12.9,30.8
	c1.7,42.1-1.7,83.9-9.1,125.4c-1.4,8-2.4,16.4,7.9,18.1c0.9,0.2,1.8,0.2,2.6,0.2c8.4,0,9-8.2,10-15.2c2.9-20,5.7-40,8.9-61.9
	c4.3,7.5,9.9,49.7,11.6,64.8c0.8,7.2,3.5,12.2,10.4,12.2c0.5,0,1.1,0,1.7-0.1c8.7-0.9,9.3-7.9,8.5-14.9
	c-0.4-3.8-12.5-84.5-8.5-125.2c3.9,6.4,7,8.6,9.9,8.6C322.2,221,325.8,215.1,329.7,211.4z"/>
<circle fill="#181B1A" cx="284.3" cy="144.7" r="24.5"/>
<path d="M55,318.8c0,22.1,17.7,40,39.5,40.1c21.4,0.1,40.3-16.1,40.3-40c0.1-23.4-18.2-40-39.4-40.1C72.8,278.6,55,296.3,55,318.8z
	 M71.4,317.3c0.5-12.5,11.6-22.6,24.3-22.1c13.4,0.6,23.3,11.4,22.6,24.9c-0.6,12.6-11.4,22.8-23.7,22.3
	C80.7,341.9,70.8,331.2,71.4,317.3z"/>
</svg>
