<?xml version="1.0" encoding="utf-8"?>
<!-- Generator: Adobe Illustrator 18.1.1, SVG Export Plug-In . SVG Version: 6.00 Build 0)  -->
<!DOCTYPE svg PUBLIC "-//W3C//DTD SVG 1.1//EN" "http://www.w3.org/Graphics/SVG/1.1/DTD/svg11.dtd">
<svg version="1.1" id="Ebene_1" xmlns="http://www.w3.org/2000/svg" xmlns:xlink="http://www.w3.org/1999/xlink" x="0px" y="0px"
	 viewBox="0 0 512 512" enable-background="new 0 0 512 512" xml:space="preserve">
<circle fill="#010202" cx="442.2" cy="211.8" r="16.3"/>
<g>
	<path fill="#010202" d="M459,279.1c-1.7-2.3-4.3-9.2-2-29.1c1.6-13.4-6.6-16.8-10.3-17.6c-4.2-1-9.5,0-13.1,4
		c0.4-0.1,0.7-0.1,1.1-0.1c1.1,0,2.3,0.2,3.4,0.7c2.8,1.1,7,4.7,5.2,11.4c-0.4,1.5-1.2,2.8-2.2,3.9c-2.3,4.2-6.4,12-12.2,19.1
		c0.7,8.7,2.9,17.3,7.9,24.1c2.7,3.6,6.8,5.6,11,5.6c2.8,0,5.7-0.9,8.1-2.7C462.2,293.8,463.5,285.2,459,279.1z"/>
</g>
<g>
	<path fill="#010202" d="M440.7,345.7c-1.9,0-3.8-0.6-5.4-1.8c-4.1-3-4.9-8.7-1.9-12.8c3.8-5.1,4.7-16,2.8-32.4
		c-0.8-7.1,1.4-11.4,6.8-12.6c3-0.7,8.6-0.1,11,6.5c0.5,1.5,0.7,3,0.4,4.5c1.6,13.6,2.5,32.9-6.3,44.8
		C446.3,344.4,443.5,345.7,440.7,345.7z M445.3,295.7l-8.6,3c0,0,0,0,0,0.1L445.3,295.7z"/>
</g>
<rect x="227.8" y="228.1" fill="#31A2D9" width="23" height="192.2"/>
<rect x="335.1" y="228.1" fill="#31A2D9" width="23" height="192.2"/>
<circle fill="#010202" cx="294.6" cy="107.3" r="16.3"/>
<g>
	<path fill="#010202" d="M311.4,174.6c-1.7-2.3-4.3-9.2-2-29.1c1.6-13.4-6.6-16.8-10.3-17.6c-5.8-1.3-13.3,1-16.3,9.4
		c-0.7,2-0.9,4.1-0.7,6.1c-0.4,3.6-0.8,7.5-0.9,11.6c0.8-3.1,1.6-6.7,2.3-10.9c0.4-2.5,1.7-10.1,9.2-10.1l0.6,0
		c3,0.2,8.1,2.3,8.5,9.1c0.1,1.5-0.2,3-0.9,4.4c-1.4,7.9-4.7,26.8-15,37.8c0.9,2,2,3.8,3.3,5.6c2.7,3.6,6.8,5.6,11,5.6
		c2.8,0,5.7-0.9,8.1-2.7C314.6,189.3,315.8,180.7,311.4,174.6z"/>
</g>
<g>
	<path fill="#010202" d="M293,241.2c-1.9,0-3.8-0.6-5.4-1.8c-4.1-3-4.9-8.7-1.9-12.8c3.8-5.1,4.7-16,2.8-32.4
		c-0.8-7.1,1.4-11.4,6.8-12.6c3-0.7,8.6-0.1,11,6.5c0.5,1.5,0.7,3,0.4,4.5c1.6,13.6,2.5,32.9-6.3,44.8
		C298.6,239.9,295.8,241.2,293,241.2z M297.7,191.2l-8.6,3c0,0,0,0,0,0.1L297.7,191.2z"/>
</g>
<g>
	<path fill="#31A2D9" d="M148.7,317.5c11.5-18.4,20.1-34.3,27.1-47.2c19.6-36.2,31.7-46.9,54.9-47.5l0-18.1
		c-13.7,0.3-24.6,3.6-34.1,9.9c-14.6,9.9-25.3,26.2-36.9,47.5c-7.2,13.2-15.3,28.2-26.4,46.1c-11.9,19.1-26.4,39.4-45,55.8
		c-21.5,19.1-48.4,33-83.1,33.5v18.1C79.4,414.5,122.6,359.2,148.7,317.5z"/>
</g>
<g>
	<path fill="#010202" d="M122.8,222.8c-3.8,2.3-6.6,6.1-7.6,10.7c-1.4,6.8,1.7,13.5,7.3,17C121.1,242.3,120.3,231.8,122.8,222.8z"/>
	<path fill="#010202" d="M141.5,224c-0.1,0.2-0.2,0.5-0.3,0.7c-1.9,3.3-3.4,10.4-0.5,25.4c3.3-2.3,5.8-5.8,6.6-10.1
		C148.5,233.8,146.1,227.7,141.5,224z"/>
</g>
<g>
	<path fill="#010202" d="M141.8,255.6c0.1,0.6,0.3,1.2,0.4,1.7c0.6,2.6,2.5,10.4-5.1,13.1c-0.3,0.1-1.5,0.5-3.1,0.5
		c-2.1,0-5.9-0.7-8.3-5.6c-0.7-1.4-1-2.9-0.9-4.4c-0.4-1.8-1-4.3-1.6-7.1c-1.4,1.1-2.7,2.5-3.8,4.3c-1.1,1.8-1.7,3.8-1.9,5.8
		c-4.5,13.7-9.3,33.2-2.4,48c0.2,0.3,0.3,0.7,0.5,1c-3.8,13.7-8.2,22.3-13.2,25.5c-3.5,2.3-5,6.6-3.8,10.4
		c12.5-13.5,22.9-28.5,31.8-42.8c3.1-4.9,5.9-9.6,8.6-14.1c0.4-4.5,1.7-11,4.7-20.4C146.4,263.5,144.4,258.5,141.8,255.6z"/>
</g>
<path fill="#010202" d="M129.4,263.5c1.1,2.2,2.6,3.3,4.6,3.3c0.9,0,1.7-0.3,1.7-0.3c3.4-1.2,3.4-4.2,2.5-8.2
	c-4.2-17.4-4.4-29-0.6-35.7c1.3-2.3,0.5-5.2-1.8-6.5c-0.7-0.4-1.5-0.6-2.3-0.6c-1.4,0-2.8,0.6-3.7,1.7c-0.2,0.2-0.3,0.4-0.5,0.7
	c-7.5,13.1-2.3,34.4-0.4,42.4l0.1,0.3l0,0.3C128.8,261.9,129,262.8,129.4,263.5z"/>
<path fill="#010202" d="M434.8,240.7c-2.8,0-4.5,3.2-5.4,4.9c-8.4,15.8-15.9,24.6-23.2,27.1c-2.5,0.8-3.8,3.6-3,6
	c0.7,2.2,3,3.5,5.2,3.2c0.3,0,0.5-0.1,0.8-0.2c14.3-4.9,24.5-24.2,28.4-31.5c0,0,1.5-1.9,1.7-2.7c1.2-4.5-1.8-6-2.7-6.4
	C436,240.8,435.4,240.7,434.8,240.7z"/>
<g>
	<path fill="#31A2D9" d="M411.4,285.3c-0.2,0.1-0.3,0.1-0.5,0.2c-0.5,0.2-1,0.3-1.5,0.4c-0.5,0.1-0.9,0.1-1.4,0.1
		c-3.8,0-7.2-2.4-8.4-6c-1.1-3.1-0.3-6.3,1.6-8.6l-64.8-89.2v38l145,200.3l28.1-0.1L411.4,285.3z"/>
	<path fill="#010202" d="M408.8,281.7C408.8,281.7,408.8,281.7,408.8,281.7l-5-6.8c-0.6,1.1-0.7,2.4-0.3,3.7
		C404.3,280.7,406.5,282,408.8,281.7z"/>
</g>
<path fill="#010202" d="M279.1,185.9c0.2-0.1,0.5-0.3,0.7-0.4c12-9.1,15.7-30.7,17.1-38.8l0.2-0.6c0.4-0.8,0.6-1.6,0.5-2.5
	c-0.3-4.6-3.6-5.2-4.6-5.2c0,0,0,0,0,0c-3.7,0-4.8,2.6-5.5,6.6c-3,17.6-7.4,28.4-13.5,33c-1,0.8-1.7,1.9-1.8,3.1
	c-0.2,1.3,0.2,2.5,0.9,3.5C274.5,186.4,277.2,187,279.1,185.9z"/>
<g>
	<path fill="#010202" d="M284.6,158.4c-2.7,9.8-6.2,16.2-10.5,19.5c-1,0.8-1.7,1.9-1.8,3.1c-0.2,1.3,0.2,2.5,0.9,3.5
		c1.4,1.8,4,2.4,6,1.4c0.2-0.1,0.5-0.3,0.7-0.4c1.9-1.4,3.6-3.2,5.1-5.1c0.5-1.6,1.4-3,2.7-4c3.3-5.6,5.5-12.1,6.9-17.9H284.6z"/>
	<path fill="#31A2D9" d="M348.4,158.4h-49.5c-1.2,5-3,10.7-5.5,16c4.4,0.2,8,3.9,8,8.3v23.4c0,4.6-3.7,8.4-8.4,8.4h0
		c-4.6,0-8.4-3.7-8.4-8.4V187c-0.7,0.7-1.4,1.3-2.2,1.9c-0.4,0.3-0.9,0.6-1.3,0.8c-1.2,0.6-2.7,1-4.1,1c-2.8,0-5.4-1.3-7.1-3.5
		c-1.4-1.9-2.1-4.2-1.7-6.6c0.3-2.4,1.6-4.5,3.5-5.9c2.5-1.9,5.8-6.3,8.7-16.2h-42.8c-5.3,0-9.7,4.3-9.7,9.7V250
		c0,5.3,4.3,9.7,9.7,9.7h110.9c5.3,0,9.7-4.3,9.7-9.7v-81.9C358,162.7,353.7,158.4,348.4,158.4z M267.4,206.2c0,4.6-3.7,8.4-8.4,8.4
		s-8.4-3.7-8.4-8.4v-23.4c0-4.6,3.7-8.4,8.4-8.4s8.4,3.7,8.4,8.4V206.2z M334.7,206.5c0,4.6-3.7,8.4-8.4,8.4h0
		c-4.6,0-8.4-3.7-8.4-8.4V183c0-4.6,3.7-8.4,8.4-8.4h0c4.6,0,8.4,3.7,8.4,8.4V206.5z"/>
</g>
</svg>
