<?xml version="1.0" encoding="utf-8"?>
<!-- Generator: Adobe Illustrator 18.1.1, SVG Export Plug-In . SVG Version: 6.00 Build 0)  -->
<!DOCTYPE svg PUBLIC "-//W3C//DTD SVG 1.1//EN" "http://www.w3.org/Graphics/SVG/1.1/DTD/svg11.dtd">
<svg version="1.1" id="Ebene_1" xmlns="http://www.w3.org/2000/svg" xmlns:xlink="http://www.w3.org/1999/xlink" x="0px" y="0px"
	 viewBox="0 0 512 512" enable-background="new 0 0 512 512" xml:space="preserve">
<path d="M218.6,454.8c1.1-12.7,2.2-24.7,3.2-37.2c20.7,0,40.9,0,62.1,0c1.1,12.3,2.2,24.5,3.3,37.2
	C264.2,454.8,242,454.8,218.6,454.8z"/>
<g>
	<polygon points="442.7,325.3 442.7,392.1 481.8,435.3 437.7,435.3 444.1,455.6 505,455.6 	"/>
	<polygon points="420.8,279.6 415.1,267.6 384.4,267.7 420.8,382.3 	"/>
</g>
<g>
	<polygon points="107.1,324.5 125.4,266.9 107.1,266.8 	"/>
	<polygon points="43.1,419 85.2,377 85.2,286.6 4.8,454.8 65.7,454.8 77.1,419 	"/>
</g>
<circle fill="#2FA3D8" cx="95.1" cy="169.7" r="39.1"/>
<g>
	<path fill="#CA1517" d="M388.2,225.1c-4.7,0-5.8-1.9-3.5-5.8c3.9-6.9,40.8-69.3,44.2-77.4c0.5-1.3,1.3-2.7,3.2-2.6
		c1.6,0.1,2.7,0.9,3.5,2.3c6.4,11.2,44,76.2,44.3,76.9c2,4.4,1.9,6.9-4.1,6.8C461.2,224.9,402.9,225.1,388.2,225.1z M397,215.9
		c23.8,0,47.1,0,70.8,0c-3.7-7.1-7.6-13.7-11.5-20.2c-4-6.8-7.9-13.7-11.9-20.6c-3.9-6.7-7.9-13.5-12-20.5
		C420.1,175,409,195.5,397,215.9z"/>
</g>
<g>
	<path fill="#CB171A" d="M251.5,145.3c-24.3,0-44-19.7-44-44s19.7-44,44-44s44,19.7,44,44S275.8,145.3,251.5,145.3z M251.5,67.1
		c-18.9,0-34.2,15.3-34.2,34.2s15.3,34.2,34.2,34.2s34.2-15.3,34.2-34.2S270.4,67.1,251.5,67.1z"/>
</g>
<path fill="#FEFEFE" d="M108.5,155c-3.5-3.5-7.1-7-10.6-10.5c0.1-0.2,0.3-0.1,0.4-0.1c2.8,0,5.5,0,8.3,0c0.4,0,0.7,0.1,1,0.4
	c4.6,4.6,9.2,9.2,13.9,13.9c0.3,0.3,0.4,0.5,0,0.8c-4.6,4.6-9.3,9.3-13.9,13.9c-0.2,0.2-0.5,0.4-0.8,0.4c-2.9,0-5.9,0-9,0
	c3.7-3.7,7.3-7.3,11-11c-1.3,0-2.3,0-3.4,0c-2.6,0-5.1,0-7.7,0c-5.5,0-10.4,5-10.4,10.4c0,8.5,0,17,0,25.5c0,0.7-0.2,0.8-0.8,0.8
	c-2.1,0-4.1,0-6.2,0c-0.5,0-0.6-0.1-0.6-0.6c0-9,0-18.1,0-27.1c0-2,0.8-3.9,1.7-5.7c3.3-7,8.9-10.6,16.7-10.7c3.2-0.1,6.4,0,9.7,0
	C107.9,155.2,108.2,155.3,108.5,155z"/>
<polygon points="132,412.5 101.1,378.3 101.1,208.9 92.3,208.9 92.3,379.7 59.4,412.5 "/>
<path d="M94.3,241c0,6.9,0,13.2,0,19.5c2,0,4.1,0,6.3,0V241C98.4,241,96.3,241,94.3,241z"/>
<polygon points="467.4,428.6 436.5,394.5 436.5,225 427.7,225 427.7,395.8 394.8,428.6 "/>
<g>
	<path d="M242.7,241.1c-51.2,0-101.2-0.1-135.6-0.1v19.5c32.6,0,84.1,0,135.6-0.1V241.1z"/>
	<path d="M264.6,260.4c77.4-0.1,148.8-0.1,148.8-0.1l0-19.1c-34,0-90.7,0-148.8-0.1V260.4z"/>
</g>
<polygon points="289.5,346.2 258.6,312.1 258.6,142.6 249.8,142.6 249.8,313.4 216.9,346.2 "/>
<g>
	<path d="M265.1,286.3c3.9,0,7.8,0,11.8,0c-0.4-6.5-0.8-12.6-1.2-19.2c-3.6,0-7.1,0-10.6,0V286.3z"/>
	<path d="M243.2,267.1c-4.4,0-8.9,0-13.4,0c-0.3,6.6-0.6,12.7-0.9,19.2c4.8,0,9.5,0,14.3,0V267.1z"/>
</g>
<g>
	<path d="M225.4,352.7c-0.3,3.7-0.6,7.5-1,11.4c19.5,0,37.7,0,56.9,0c-0.3-3.9-0.6-7.7-0.9-11.4H225.4z"/>
</g>
</svg>
