<?xml version="1.0" encoding="utf-8"?>
<!-- Generator: Adobe Illustrator 18.1.1, SVG Export Plug-In . SVG Version: 6.00 Build 0)  -->
<!DOCTYPE svg PUBLIC "-//W3C//DTD SVG 1.1//EN" "http://www.w3.org/Graphics/SVG/1.1/DTD/svg11.dtd">
<svg version="1.1" id="Ebene_1" xmlns="http://www.w3.org/2000/svg" xmlns:xlink="http://www.w3.org/1999/xlink" x="0px" y="0px"
	 viewBox="0 0 512 512" enable-background="new 0 0 512 512" xml:space="preserve">
<polygon points="1.9,412.8 88.1,232.6 117.5,232.7 60.2,412.9 "/>
<path d="M206.8,412.8c1.1-12.1,2.1-23.7,3.1-35.7c19.9,0,39.2,0,59.5,0c1.1,11.7,2.1,23.5,3.2,35.7
	C250.5,412.8,229.2,412.8,206.8,412.8z"/>
<path d="M212.4,326c0.7-8.8,1.4-16.9,2.1-25.4c16.8,0,33.2,0,50.3,0c0.7,8.4,1.4,16.6,2.1,25.4C248.5,326,231.1,326,212.4,326z"/>
<path d="M261.6,232.9c0.4,6.3,0.8,12.2,1.2,18.4c-15.5,0-30.4,0-46,0c0.3-6.3,0.5-12.1,0.8-18.4
	C232.4,232.9,246.5,232.9,261.6,232.9z"/>
<g>
	<g>
		<g>
			<path fill="#CB171B" d="M338.3,328.3c-0.7,0.9-1.2,0.7-1.1-0.4l2.8-56.3c0.1-1.1-0.8-1.8-1.8-1.5l-34.2,8.1
				c-1.1,0.3-1.6-0.4-1.2-1.4l5.8-13.3c0.4-1,1.1-2.7,1.6-3.7l3.1-7.1c0.4-1,1.2-2.7,1.6-3.7l0.2-0.6c0.4-1,1.2-2.7,1.6-3.7
				l5.4-12.1c0.5-1,0-2.2-1-2.7l-8.2-4.3c-1-0.5-2.6-1.4-3.5-1.9l-13-6.8c-1-0.5-1-1.3,0-1.9l13.9-7.3c1-0.5,1.1-1.6,0.4-2.4
				L250.5,144c-0.8-0.8-0.5-1.2,0.5-0.9l91.6,26.1c1.1,0.3,2-0.3,2.2-1.4l4-28.5c0.2-1.1,0.9-1.3,1.7-0.5l13.5,14.4
				c0.8,0.8,1.9,0.7,2.5-0.2l41.7-62.6c0.6-0.9,1.1-0.8,1.2,0.3l2.1,80.8c0,1.1,0.9,1.9,2,1.7l23.8-3.6c1.1-0.2,1.6,0.5,1.1,1.5
				l-9,18.4c-0.5,1,0,2,1.1,2.3l75.9,18.2c1.1,0.3,1.1,0.8,0.1,1.1l-67.1,24.3c-1,0.4-1.3,1.3-0.5,2.1l54.3,56.7
				c0.8,0.8,0.5,1.1-0.5,0.8L415,267.1c-1-0.4-2,0.2-2.1,1.3l-3,35.4c-0.1,1.1-0.8,1.4-1.7,0.7l-29-25.9c-0.8-0.7-2-0.6-2.7,0.2
				L338.3,328.3z"/>
		</g>
		<g>
			<polygon points="417,293.9 414.9,318.8 396.2,302.2 385,292.2 423.6,413.4 481.9,413.3 418.2,280.1 			"/>
		</g>
	</g>
</g>
<g>
	<path d="M302.3,226.3l-21.1-11l14.1-7.4c-69.2,0-138.3,0-207.6,0c0,6.6,0,12.6,0,18.7c71.9,0,143.5,0,215.1,0L302.3,226.3z"/>
</g>
</svg>
