<?xml version="1.0" encoding="utf-8"?>
<!-- Generator: Adobe Illustrator 18.1.1, SVG Export Plug-In . SVG Version: 6.00 Build 0)  -->
<!DOCTYPE svg PUBLIC "-//W3C//DTD SVG 1.1//EN" "http://www.w3.org/Graphics/SVG/1.1/DTD/svg11.dtd">
<svg version="1.1" id="Ebene_1" xmlns="http://www.w3.org/2000/svg" xmlns:xlink="http://www.w3.org/1999/xlink" x="0px" y="0px"
	 viewBox="0 0 512 512" enable-background="new 0 0 512 512" xml:space="preserve">
<g>
	<polygon points="268.3,757.6 268.3,568.1 245.6,568.2 245.6,739.8 279.1,845.2 347.7,845.2 	"/>
</g>
<g>
	<path d="M255.3,47.8c24.3,9.7,30.5,19.6,27,44.8c16.4-4.3,21.3,8.8,28.6,18.6l16.2,22.9c5.1,8.3,10.9,14.1,22.5,11.1
		c0,5,0,9.2,0,14.5c-64.2,0-129,0-194.4,0c0-4.4,0-8.3,0-14.1c15.4,4.5,19.9-7.9,26.6-17.1l16.2-22.9c5.5-8.9,11.6-15.7,24.7-12.3
		c-5.3-24.9,5.7-38.8,27.7-45.4C252,47.8,253.7,47.8,255.3,47.8z M252,92.5c9.8,1.5,16.4-1.6,16.2-12.5c-0.2-9.5-5.5-15.1-15.2-15.5
		c-9-0.4-17,7.1-16.4,15.8C237.1,89.8,242.3,94.3,252,92.5z"/>
</g>
<g>
	<path fill="#010202" d="M281.5,294.2l2.3,1.4c5.9-18.3,8.5-36.2,8.2-56.4l-10-3.8c0.5,13.7-0.4,26.3-2.8,38.6l1.5,1.9
		c0.7,0.8,0.4,1.9-0.6,2.3l-2,0.9c-0.8,3.7-1.8,7.3-2.9,11l3,1.9C279,292.7,280.6,293.6,281.5,294.2z"/>
	<path fill="#010202" d="M270.9,325.2c0.5-1,1.4-2.5,1.9-3.5l3-5.6c0.2-0.4,0.5-0.9,0.7-1.4c2.2-5.1,4.2-10.1,5.9-15.1l-3.1-2
		c-0.9-0.6-2.4-1.6-3.4-2.2l-2.1-1.3c-2.8,8.6-6.4,17.4-10.8,26.4h-17.9c-20.6-42.9-23.7-77.5-12.1-135l42.3,0.1
		c3.4,16.9,5.5,31.8,6.3,45.6l10.1,3.8c-0.6-14.9-2.7-31-6.3-49.4l38-0.2l-1.9,31.1c1,0.3,1.8,0.9,2.6,1.8l8.6,10.9l5.4-6.8
		l4.3-53.2H171.9l-0.6,91.4l28.9,73.6H266L270.9,325.2z M210.7,320.5l-25-59.2l1.5-75.9h30l5.8,0c-11.3,56.9-8.4,92.4,11.3,135.1
		H210.7z"/>
	<path fill="#010202" d="M310.7,334.3l24.3-73l2.6-31.7l-3.6,4.5c-0.3,0.4-0.8,0.6-1.2,0.6c-0.5,0-0.9-0.2-1.2-0.6l-10.2-12.9
		l-2.5,41.5l-17.3,57.8h-23.5l-1.6,3c-0.5,1-1.4,2.6-1.9,3.5l-3.9,7.3H310.7z"/>
</g>
<path fill="#CB171B" d="M451.9,294.8l-64.7-21.6c-1-0.3-1.4-1.4-0.9-2.3l9.1-15c0.5-0.9,0.2-1.6-0.8-1.6c0,0-0.1,0-0.1,0l-20.6,1.3
	c0,0-0.1,0-0.1,0c-1,0-1.8-0.8-1.8-1.9l4.3-70.5c0-0.6-0.1-1-0.4-1c-0.2,0-0.5,0.2-0.7,0.5l-41,51.4c-0.3,0.4-0.8,0.6-1.2,0.6
	c-0.5,0-0.9-0.2-1.2-0.6L321,220.9c-0.3-0.4-0.6-0.5-0.9-0.5c-0.4,0-0.7,0.3-0.8,0.9l-5.6,24.3c-0.2,0.8-0.9,1.4-1.7,1.4
	c-0.2,0-0.4,0-0.7-0.1l-77.9-29.7c-0.3-0.1-0.5-0.2-0.7-0.2c-0.4,0-0.4,0.4,0.1,1l47.7,58.1c0.7,0.8,0.4,1.9-0.6,2.3l-12.3,5.2
	c-1,0.4-1.1,1.3-0.2,1.9l10.5,6.7c0.9,0.6,2.4,1.6,3.4,2.2l6.4,4.1c0.9,0.6,1.2,1.9,0.7,2.8l-5.4,9.8c-0.5,1-1.4,2.5-1.9,3.5l0,0.1
	c-0.5,1-1.4,2.5-1.9,3.5l-3,5.6c-0.5,1-1.4,2.6-1.9,3.5l-5.8,10.8c-0.5,0.9-0.1,1.5,0.7,1.5c0.1,0,0.2,0,0.3,0l30.1-4.4
	c0.1,0,0.2,0,0.3,0c0.9,0,1.6,0.7,1.4,1.7l-6.7,48.7c-0.1,0.7,0,1,0.3,1c0.2,0,0.5-0.2,0.8-0.5l37-40.1c0.4-0.4,0.9-0.6,1.4-0.6
	c0.5,0,1,0.2,1.4,0.6l23.1,24.5c0.3,0.3,0.6,0.5,0.9,0.5c0.4,0,0.7-0.3,0.8-1l5.3-30.4c0.1-0.8,0.7-1.3,1.4-1.3
	c0.2,0,0.5,0.1,0.7,0.2l65.6,30c0.3,0.1,0.5,0.2,0.7,0.2c0.4,0,0.3-0.3-0.1-0.9l-43-53.5c-0.7-0.9-0.4-1.8,0.7-2.1l60.2-16.1
	C452.9,295.7,452.9,295.2,451.9,294.8z"/>
<g>
	<path d="M268.3,343.6c-1.4-0.2-2.7-1-3.4-2.2c-0.9-1.5-0.9-3.4,0-5.1l3.4-6.3v-7h-22.7v438.5l-84.3,84.2h186.4l-79.4-87.6V343.6z"
		/>
</g>
</svg>
